<svg width="40" height="40" viewBox="0 0 40 40" fill="none" xmlns="http://www.w3.org/2000/svg">
<circle cx="20" cy="20" r="20" fill="#F0F0F0"/>
<g clip-path="url(#clip0)">
<path d="M27.25 19.75H21.25V13.75C21.25 13.336 20.914 13 20.5 13C20.086 13 19.75 13.336 19.75 13.75V19.75H13.75C13.336 19.75 13 20.086 13 20.5C13 20.914 13.336 21.25 13.75 21.25H19.75V27.25C19.75 27.664 20.086 28 20.5 28C20.914 28 21.25 27.664 21.25 27.25V21.25H27.25C27.664 21.25 28 20.914 28 20.5C28 20.086 27.664 19.75 27.25 19.75Z" fill="#AFAFAF"/>
</g>
<defs>
<clipPath id="clip0">
<rect x="13" y="13" width="15" height="15" fill="white"/>
</clipPath>
</defs>
</svg>
