<svg width="20" height="20" viewBox="0 0 20 20" fill="none" xmlns="http://www.w3.org/2000/svg">
<circle cx="10" cy="10" r="10" fill="#F8F8F8"/>
<path d="M16.4125 12.5875C16.4125 16.15 13.525 19 9.99999 19C6.47498 19 3.58749 16.15 3.58749 12.5875C3.58749 9.02501 9.99999 1 9.99999 1C9.99999 1 16.4125 9.06249 16.4125 12.5875Z" fill="#84DBFF"/>
<path d="M9.99999 17.3125C7.41249 17.3125 5.27499 15.2125 5.27499 12.5875C5.27499 12.2875 5.53751 12.025 5.83749 12.025C6.13748 12.025 6.39999 12.2875 6.39999 12.5875C6.39999 14.575 8.01251 16.1875 9.99999 16.1875C10.3 16.1875 10.5625 16.45 10.5625 16.75C10.5625 17.05 10.3 17.3125 9.99999 17.3125Z" fill="white"/>
</svg>
